# xmcd CD database file
#
# Track frame offsets:
#	150
#	14271
#	25933
#	39675
#	52970
#	66207
#	78718
#	92188
#	104831
#	119556
#	135203
#	148439
#	161596
#	175543
#	189261
#
# Disc length: 2709 seconds
#
# Revision: 0
# Processed by: cddbd v1.4PL0 Copyright (c) Steve Scherf et al.
# Submitted via: CDex 1.51
#
DISCID=d00a930f
DTITLE=Count Basie With "The Fives" - Greatest Hits
DYEAR=2001
DGENRE=Blues
TTITLE0=Oh! Lady Be Good
TTITLE1=Love Me or Leave Me
TTITLE2=Boogie Woogie
TTITLE3=Evenin'
TTITLE4=Sugar Blues
TTITLE5=Hey Lawdy  Mama
TTITLE6=Shoe Shine Boy
TTITLE7=The Fives
TTITLE8=Farewell Blues
TTITLE9=Way Back Blues
TTITLE10=When The Sun Goes Down
TTITLE11=Oh! Red
TTITLE12=Fare Thee Honey, Fare The Well
TTITLE13=The Dirty Dozen
TTITLE14=Royal Garden Blues
EXTD=YEAR: 2001
EXTT0=
EXTT1=
EXTT2=
EXTT3=
EXTT4=
EXTT5=
EXTT6=
EXTT7=
EXTT8=
EXTT9=
EXTT10=
EXTT11=
EXTT12=
EXTT13=
EXTT14=
PLAYORDER=
